# xmcd
#
# Track frame offsets: 
#        183
#        13225
#        22848
#        32980
#        43488
#        56110
#        67818
#        77633
#        89875
#        101280
#        112795
#        127308
#        136970
#        148268
#        160458
#        171745
#
# Disc length: 2435 seconds
#
# Revision: 1
# Processed by: cddbd v1.5.2PL0 Copyright (c) Steve Scherf et al.
# Submitted via: ExactAudioCopy v0.99pb5
#
DISCID=ed098110
DTITLE=Various Artist - More Country Gold - The Stars and Hits of Country and Wes
DTITLE=tern Music - CD 1
DYEAR=1900
DGENRE=Country
TTITLE0=Frankie Laine - Moonlight gambler
TTITLE1=Johnny Cash - Just about time
TTITLE2=Faron Young - Hello walls
TTITLE3=Patsy Cline - Lovesick blues
TTITLE4=Porter Wagoner - A satisfied mind
TTITLE5=Don Williams - On her way to be a woman
TTITLE6=Stonewall Jackson - Shake 'em up and roll 'em
TTITLE7=Anne Murray - All the time
TTITLE8=Cowboy Copas - Country boy
TTITLE9=Marty Robbins - The story of my life
TTITLE10=Willie Nelson - Will you remember mine
TTITLE11=Billie Jo Spears - Danny
TTITLE12=Johnny Horton - The battle of New Orleans
TTITLE13=Red Foley - Tennessee border
TTITLE14=Lester Flatt and Earl Scruggs - Cabin on the hill
TTITLE15=Hank Locklin - Send me On the pillow you dream on
EXTD=
EXTT0=
EXTT1=
EXTT2=
EXTT3=
EXTT4=
EXTT5=
EXTT6=
EXTT7=
EXTT8=
EXTT9=
EXTT10=
EXTT11=
EXTT12=
EXTT13=
EXTT14=
EXTT15=
PLAYORDER=
